<svg xmlns="http://www.w3.org/2000/svg" version="1.1" xmlns:xlink="http://www.w3.org/1999/xlink" width="90" height="90"><svg xmlns="http://www.w3.org/2000/svg" version="1.1" xmlns:xlink="http://www.w3.org/1999/xlink" width="90" height="90"><svg id="Social_media" style="enable-background:new 0 0 90 90;" version="1.1" viewBox="0 0 90 90" xml:space="preserve" xmlns="http://www.w3.org/2000/svg" xmlns:xlink="http://www.w3.org/1999/xlink"><style type="text/css">
	.st0{fill:none;}
	.st1{fill:#FFFFFF;}
</style><g><path class="st0" d="M35,25.1c-0.1,0.1-0.1,0.1-0.2,0.2C34.9,25.3,35,25.2,35,25.1C35.1,25.2,35.1,25.1,35,25.1z"></path><path class="st0" d="M14.8,35.1c0.3-0.4,0.7-0.7,1-1.1c0,0,0-0.1,0-0.1c0,0,0,0,0,0c-0.3,0.3-0.6,0.5-1,0.6   C14.8,34.7,14.8,34.9,14.8,35.1z"></path><path class="st0" d="M61.3,20.2c0.2-0.2,0.4-0.5,0.5-0.7c-0.4,0.3-0.8,0.6-1.2,0.9C60.8,20.4,61,20.3,61.3,20.2z"></path><path class="st0" d="M15.2,47.8c0-0.1,0-0.3,0-0.4c-0.1,0.1-0.2,0.2-0.3,0.2c-0.2,0.2-0.4,0.3-0.6,0.3c0,0.5,0,1-0.1,1.5   C14.5,48.9,14.8,48.3,15.2,47.8z"></path><path class="st0" d="M20.7,22.1c0.4-0.3,0.8-0.7,1.2-1c-0.5,0.3-0.9,0.5-1.4,0.8C20.6,22,20.7,22,20.7,22.1z"></path><path class="st0" d="M68.5,22c-0.4,0.4-0.8,0.9-1.2,1.4C67.7,22.9,68.1,22.4,68.5,22z"></path><path class="st0" d="M67.8,35.3c1-1.3,2.2-2.6,3.1-4c0.1-0.2,0.2-0.3,0.3-0.5c-2,2-3.7,4.5-5.3,7C66.5,37,67.2,36.2,67.8,35.3z"></path><path class="st0" d="M16.4,71.1c-0.3,0-0.7,0-1,0c0.1,0.3,0.3,0.7,0.4,1c0.2-0.3,0.5-0.7,0.7-1C16.6,71.1,16.5,71.1,16.4,71.1z"></path><path class="st0" d="M34.3,76.7c-0.3,0.2-0.5,0.3-0.8,0.4c0.3,0,0.6,0,0.9,0C34.3,77,34.3,76.8,34.3,76.7z"></path><path class="st0" d="M58.3,76c-0.1,0.1-0.2,0.2-0.3,0.3c0.1,0,0.3,0,0.4,0C58.4,76.2,58.3,76.1,58.3,76z"></path><path class="st0" d="M74.4,73.7c-0.5,0.5-1.1,1-1.8,1.4c1-0.5,1.9-1.2,2.5-2.2c0.2-0.3,0.3-0.6,0.4-0.9   C75.3,72.5,74.9,73.1,74.4,73.7z"></path><path class="st0" d="M47.4,15c0.4-0.3,0.9-0.6,1.3-0.9c-0.3,0-0.6,0-1,0C47.6,14.4,47.5,14.7,47.4,15z"></path><path d="M79.1,53.4c-0.2-5.7,0.1-11.4,0.3-17c0.2-6.9,2.4-18.7-4.1-23.4C67,6.8,54.6,9.7,45.2,9.2c-5.2-0.3-9.8-1.8-15-0.6   c-0.3,0.1-0.6,0.2-0.9,0.2c-7.3-0.3-14.9,0.9-17.6,8.6c-1.3,3.6-1.3,7.6-1.4,11.4c-0.2,5.9-0.4,11.8-0.6,17.7   C9.3,55.9,7.7,66.8,12,75.5c3.6,7.4,13.8,6.6,20.9,6.6C44,82,55.1,81.1,66.2,81c7.2-0.1,14.7-3.2,14.6-11.4   C80.8,64.2,79.2,58.8,79.1,53.4z M67.3,23.3c0.4-0.5,0.8-0.9,1.2-1.4C68.1,22.4,67.7,22.9,67.3,23.3z M71.1,30.8   C71,31,71,31.1,70.9,31.3c-0.9,1.4-2,2.7-3.1,4c-0.7,0.8-1.3,1.6-2,2.5C67.4,35.3,69.1,32.8,71.1,30.8z M61.3,20.2   c-0.2,0.1-0.4,0.1-0.6,0.2c0.4-0.3,0.8-0.6,1.2-0.9C61.6,19.8,61.4,20,61.3,20.2z M20.7,22.1c-0.1-0.1-0.1-0.1-0.2-0.2   c0.5-0.3,0.9-0.5,1.4-0.8C21.5,21.4,21.1,21.8,20.7,22.1z M15.8,33.8c0,0,0,0.1,0,0.1c-0.3,0.4-0.7,0.7-1,1.1c0-0.2,0-0.4,0-0.6   C15.2,34.4,15.5,34.2,15.8,33.8C15.8,33.9,15.8,33.8,15.8,33.8z M14.8,47.6c0.1-0.1,0.2-0.2,0.3-0.2c0,0.1,0,0.3,0,0.4   c-0.3,0.5-0.7,1.1-1,1.7c0-0.5,0-1,0.1-1.5C14.4,47.9,14.6,47.8,14.8,47.6z M58.4,65.4c-7.7,1.2-15.8,2-23.6,1.5   c-5.3-0.3-8.7-3.3-9.9-8.5c-0.8-3.4-0.4-7-0.6-10.5c-0.2-3.6-0.9-7.1-1.2-10.7c-0.4-5.5,1.6-8.9,6.8-10.5c1.6-0.5,3.3-1,5-1.4   c0.1-0.1,0.1-0.1,0.2-0.2c0,0,0.1,0.1,0.1,0.1c2.5-0.7,4.9-1.3,7.4-1.8c2.1-0.4,4.3-0.7,6.4,0.1c5.1,2,4.4,8.3,4.5,12.8   c0,0.3,0,0.6-0.1,0.8c1.1-0.2,2.2-0.4,3.4-0.6c2.2-0.4,4.6-0.8,6.7,0.2c1.9,0.9,2.7,2.4,3.1,4.4c0.9,4.2,0.7,9.3,0.6,13.6   C67,61,64.7,64.4,58.4,65.4z M47.4,15c0.2-0.3,0.3-0.6,0.3-0.9c0.3,0,0.6,0,1,0C48.2,14.4,47.8,14.7,47.4,15z M15.5,71.1   c0.3,0,0.6,0,1,0c0.1,0,0.1,0,0.2,0c-0.2,0.3-0.5,0.7-0.7,1C15.8,71.8,15.6,71.4,15.5,71.1z M34.3,76.7c0,0.1,0,0.3,0.1,0.4   c-0.3,0-0.6,0-0.9,0C33.7,77,34,76.9,34.3,76.7z M58.3,76c0,0.1,0.1,0.2,0.1,0.3c-0.1,0-0.3,0-0.4,0C58.1,76.2,58.2,76.1,58.3,76z    M72.6,75c0.7-0.4,1.3-0.8,1.8-1.4c0.5-0.5,0.9-1.1,1.2-1.8c-0.1,0.3-0.3,0.6-0.4,0.9C74.5,73.8,73.6,74.5,72.6,75z"></path><path d="M31.8,38.8c3.5-0.8,7.9-0.5,10.4-0.9c2.6-0.4,6.6-1.4,5-5.1c-1.3-3-5-2.6-7.5-2.3c-2,0.2-5.7,0.4-7.5,1.5   c-1,0.6-2.8,3.3-2.6,4.8C29.8,37.6,30.8,38.3,31.8,38.8z"></path><path d="M60,52c-0.2-2.3,0.2-6.8-2.5-7.8c-1.7-0.7-5.7,1-7.3,1.4c-3.6,1-7.3,1.7-11,2.2c-1.4,0.2-3.6,0.6-5.7,0.7   c-0.9,0.6-1.7,1.5-2.3,2.4c-0.3,0.5-0.6,1-0.7,1.6c-0.1,0.5,0.1,1.1-0.2,0.7c0.2,0.4,0.2,0.8,0.2,1.3c0,0,0,0.1,0,0.1   c0.8,3.9,2.6,4.4,6.3,4.8c4.5,0.6,9.1,0.6,13.6,0.3C55.7,59.2,60.6,58.4,60,52z"></path><path class="st1" d="M67.1,54.7c0.1-4.3,0.4-9.4-0.6-13.6c-0.4-2-1.2-3.5-3.1-4.4c-2.1-1-4.5-0.5-6.7-0.2c-1.1,0.2-2.2,0.4-3.4,0.6   c0.1-0.2,0.1-0.5,0.1-0.8c-0.2-4.5,0.6-10.7-4.5-12.8c-2-0.8-4.3-0.5-6.4-0.1c-2.4,0.5-4.9,1.1-7.4,1.8c-0.1,0-0.2,0.1-0.3,0.1   c-1.7,0.5-3.3,0.9-5,1.4c-5.3,1.6-7.3,5-6.8,10.5c0.3,3.6,1,7.1,1.2,10.7c0.2,3.5-0.2,7.1,0.6,10.5c1.2,5.2,4.6,8.2,9.9,8.5   c7.8,0.4,15.9-0.4,23.6-1.5C64.7,64.4,67,61,67.1,54.7z M50.3,59.6c-4.5,0.4-9.1,0.3-13.6-0.3c-3.6-0.4-5.4-0.9-6.3-4.8   c0,0,0-0.1,0-0.1c0.1-0.4,0-0.9-0.2-1.3c0.3,0.4,0.1-0.3,0.2-0.7c0.1-0.6,0.4-1.1,0.7-1.6c0.6-0.9,1.4-1.8,2.3-2.4   c2.1-0.1,4.3-0.5,5.7-0.7c3.8-0.4,7.4-1.2,11-2.2c1.6-0.4,5.6-2.1,7.3-1.4c2.7,1.1,2.3,5.5,2.5,7.8C60.6,58.4,55.7,59.2,50.3,59.6z    M29.7,36.8c-0.2-1.4,1.6-4.2,2.6-4.8c1.8-1.1,5.4-1.3,7.5-1.5c2.6-0.2,6.2-0.7,7.5,2.3c1.6,3.6-2.5,4.6-5,5.1   c-2.5,0.4-6.9,0.1-10.4,0.9C30.8,38.3,29.8,37.6,29.7,36.8z"></path></g></svg></svg><style>@media (prefers-color-scheme: light) { :root { filter: none; } }
@media (prefers-color-scheme: dark) { :root { filter: none; } }
</style></svg>